<?xml version="1.0" encoding="utf-8"?>
<!-- Generator: Adobe Illustrator 16.0.0, SVG Export Plug-In . SVG Version: 6.00 Build 0)  -->
<!DOCTYPE svg PUBLIC "-//W3C//DTD SVG 1.1//EN" "http://www.w3.org/Graphics/SVG/1.1/DTD/svg11.dtd">
<svg version="1.1" id="Layer_1" xmlns="http://www.w3.org/2000/svg" xmlns:xlink="http://www.w3.org/1999/xlink" x="0px" y="0px"
	 width="400px" height="400px" viewBox="0 0 400 400" enable-background="new 0 0 400 400" xml:space="preserve">
<ellipse fill="#FFFFFF" stroke="#000000" stroke-width="6" stroke-miterlimit="10" cx="200.143" cy="169.429" rx="141.429" ry="142.857"/>
<g>
	<path d="M171.071,109.857c0-4,0.107-8.643-0.464-12.643c-12.571-2.286-10.232-22.893-2.804-28.607
		c7.429-6.857,22.884-8.589,30.313-0.018c8,9.143,1.728,25.705-3.415,34.276c-5.143,8-4.565,6.281,3.435,11.996
		c5.143,3.429,9.147,7.998,14.861,9.712c14.857,4,20.572-3.43,13.715-16.001c-5.143-9.714-8.57-24.572,6.858-28.572
		c12.571-3.429,24.001,6.286,23.43,18.857c-0.571,10.286-16,24-4,30.856c5.143,2.857,12-0.571,16,6.286c2.286,4,0.571,12-0.571,16
		c-1.715,7.428-14.857,28-10.857,34.857c4.571,7.429,22.857-8.571,32-1.143c14.857,12-7.429,23.429-5.714,33.714
		c1.143,5.143,9.143,6.286,12,11.429c2.856,4,3.429,10.857,4.571,15.429c2.857,12,2.644,23.429-0.214,36
		C294.5,304.571,278,325.715,276,348.571c0,0.572,0,1.429,0,1.429"/>
	<g>
		<path d="M172.786,109.714c-0.004-4.209-0.064-8.388-0.571-12.571c-0.079-0.65-0.397-1.286-1.101-1.446
			c-10.284-2.342-8.91-16.305-4.667-23.319c5.965-9.861,23.116-10.728,30.636-2.745c8.698,9.233,0.3,26.282-5.238,34.916
			c-1.279,1.993-2.806,4.36-1.22,6.589c0.78,1.096,2.121,1.854,3.211,2.59c3.375,2.28,6.619,4.679,9.82,7.199
			c5.787,4.557,17.457,9.751,24.29,3.979c6.424-5.426,1.448-13.916-1.283-19.856c-1.97-4.283-3.269-9.246-2.605-13.969
			c0.946-6.737,7.55-9.711,13.647-10.25c6.506-0.575,12.368,3.245,15.631,8.63c3.675,6.067,2.007,12.337-0.85,18.214
			c-3.197,6.578-8.952,15.243-2.537,21.691c2.896,2.912,7.086,3.077,10.907,3.427c9.685,0.886,8.111,11.014,6.398,17.819
			c-1.678,6.667-21.006,37.052-6.873,39.658c7.617,1.405,15.47-4.981,23.175-5.073c5.66-0.067,10.406,5.854,9.458,11.298
			c-0.778,4.468-4.347,8.466-6.821,12.108c-4.55,6.697-5.585,12.675,1.769,17.521c5.686,3.747,8.212,7.297,9.684,14.028
			c1.602,7.323,3.134,14.629,3.406,22.143c0.634,17.494-6.352,32.913-13.633,48.353c-5.669,12.02-12.489,25.459-12.489,39.067
			c0,1.935,3,1.935,3,0c0-13.608,7.144-27.088,12.798-39.076c5.737-12.167,11.067-24.135,12.81-37.594
			c1.646-12.72-0.365-26.99-4.474-39.131c-1.368-4.042-4.09-6.827-7.577-9.115c-2.325-1.526-5.878-3.024-6.215-6.185
			c-0.255-2.401,1.225-4.807,2.4-6.775c3.798-6.361,10.546-12.815,7.847-20.884c-2.738-8.187-11.099-9.62-18.377-7.873
			c-4.069,0.977-7.936,2.665-11.973,3.762c-5.63,1.53-7.521-1.269-6.438-6.64c1.833-9.091,7.295-17.141,10.518-25.753
			c2.765-7.388,4.843-18.651-3.214-23.352c-4.392-2.562-9.755-0.516-13.965-3.856c-4.958-3.934-0.21-11.683,1.895-15.844
			c4.386-8.671,6.638-16.95,0.579-25.569c-5.356-7.621-15.968-9.946-24.33-6.282c-7.853,3.44-10.208,10.51-8.882,18.586
			c0.644,3.915,2.281,7.689,4.088,11.194c2.245,4.355,5.075,11.724-1.135,14.22c-5.731,2.303-12.911-0.751-17.524-4.005
			c-2.691-1.898-5.155-4.094-7.859-5.981c-1.655-1.155-6.722-3.306-5.55-5.69c2.073-4.218,4.889-7.874,6.641-12.303
			c2.085-5.273,3.489-10.692,3.45-16.391c-0.13-19.33-24.528-22.13-36.645-11.667c-8.725,7.534-10.005,27.999,3.519,31.078
			c-0.367-0.482-0.734-0.964-1.101-1.446c0.507,4.183,0.567,8.362,0.571,12.571C169.788,111.649,172.788,111.649,172.786,109.714
			L172.786,109.714z"/>
	</g>
</g>
<g>
	<g>
		<path d="M274.357,350.288c0.187,4.217,1.775,7.63,4.228,11.016c2.948,4.07,6.936,7.647,7.2,12.984c0.096,1.925,3.096,1.935,3,0
			c-0.478-9.615-11.005-14.427-11.428-24C277.272,348.361,274.271,348.354,274.357,350.288L274.357,350.288z"/>
	</g>
</g>
<g>
	<path d="M171.286,110.859c-28-1.143-30.286,30.857-30.857,51.429c-0.571,11.428,3.429,20,4.572,30.857
		c0.571,5.714,0.571,12,0,17.714c-0.572,8.571,0,9.143-7.429,11.429c-9.714,3.429-26.286,3.429-22.286,19.429
		c1.714,6.285,8.571,9.143,7.428,16.571c-1.143,5.714-8.571,8.571-10.857,14.857c-3.429,11.428,1.714,20.571,2.857,31.428
		c1.143,12-5.714,20.572-5.143,31.429c0.571,6.857,5.714,8.571,9.143,13.715c2.857,5.143,2.857,10.856,4,16
		c1.143,7.429-0.571,8.571,7.429,10.285c4,1.144,10.857,0,14.857-0.571c1.714-5.714-4-9.714-5.143-14.857
		c-1.143-4-0.571-12,1.143-15.428c9.714-17.144,20,1.143,18.857,12c0,3.428,1.143,5.143-1.143,8.571
		c-1.714,2.285-6.857,2.285-8,4.571c-2.857,7.429,5.143,6.285,10.857,5.714c11.429-0.571,22.857-1.714,34.857-1.714
		c29.714,0,60-1.715,90.286,0.571"/>
	<g>
		<path d="M171.286,109.359c-19.414-0.442-27.9,15.23-30.713,32.353c-1.542,9.386-2.353,19.644-1.281,29.099
			c0.68,5.992,2.41,11.828,3.536,17.741c1.497,7.856,1.09,15.745,0.586,23.664c-0.123,1.932,0.008,4.172-0.852,5.958
			c-0.81,1.683-3.827,2.176-5.39,2.668c-4.048,1.273-8.205,2.136-12.257,3.396c-7.238,2.254-12.318,6.868-11.619,14.889
			c0.393,4.516,2.848,7.713,5.479,11.204c2.084,2.764,3.379,5.92,1.877,9.348c-1.21,2.764-4.213,4.916-6.28,7.03
			c-8.83,9.03-4.158,22.52-1.896,33.232c1.329,6.295,0.761,12.079-0.933,18.223c-1.211,4.393-2.878,8.738-3.307,13.309
			c-0.394,4.195-0.065,7.867,2.37,11.404c3.025,4.393,6.853,6.524,8.569,11.99c1.488,4.739,2.051,10.21,2.534,15.139
			c0.192,1.961,0.497,3.752,1.979,5.154c5.134,4.854,15.637,2.598,21.71,1.717c0.476-0.068,0.953-0.592,1.047-1.048
			c1.539-7.371-5.33-12.561-5.674-19.835c-0.241-5.104,0.759-9.725,4.026-13.711c3.998-4.878,8.348-1.74,10.861,2.531
			c1.972,3.351,2.806,7.447,2.772,11.293c-0.019,2.164,0.409,4.467,0.062,6.611c-0.552,3.42-3.998,3.428-6.335,4.581
			c-3.622,1.786-5.407,8.053-0.768,9.89c2.573,1.019,5.392,0.762,8.09,0.523c5.511-0.487,11.047-0.746,16.569-1.108
			c11.979-0.785,23.934-0.778,35.931-0.942c24.92-0.339,49.848-1.11,74.733,0.697c1.932,0.141,1.918-2.86,0-3
			c-32.389-2.353-65.354-1.431-97.794-0.436c-7.319,0.225-14.626,0.81-21.933,1.271c-2.867,0.182-5.722,0.359-8.583,0.612
			c-1.054,0.093-2.104,0.114-3.16,0.111c-2.295-0.008-5.312-2.514-2.5-4.571c3.781-2.768,6.808-1.763,8.643-6.831
			c0.701-1.936,0.052-4.395-0.03-6.371c-0.099-2.41-0.058-4.614-0.537-7.007c-1.251-6.252-6.208-15.437-13.887-13.053
			c-8.823,2.739-9.92,15.486-8.756,22.896c0.284,1.805,6.765,13.953,5.267,14.171c-3.166,0.459-6.306,0.82-9.507,0.833
			c-2.157,0.009-7.174-0.495-8.65-2.495c-0.965-1.308-0.72-3.985-0.898-5.526c-0.312-2.683-0.894-5.348-1.307-8.019
			c-0.985-6.364-3.133-10.726-7.666-15.189c-5.647-5.562-4.631-12.02-2.669-19.084c1.705-6.142,3.624-11.96,3.578-18.407
			c-0.044-6.199-2.272-12.36-3.459-18.392c-0.828-4.203-0.85-8.341-0.033-12.543c0.765-3.937,3.658-6.551,6.398-9.209
			c3.082-2.99,5.222-5.998,5.063-10.42c-0.162-4.533-4-7.957-6.292-11.515c-3.003-4.662-2.473-11.143,2.075-14.459
			c3.519-2.566,8.293-3.4,12.432-4.435c6.237-1.558,12.873-2.513,13.68-9.798c1.483-13.396-0.001-25.685-2.837-38.742
			c-2.336-10.756-1.58-22.288-0.053-33.144c1.261-8.968,3.792-18.462,10.282-25.11c4.672-4.786,11.231-6.287,17.706-6.14
			C173.221,112.403,173.217,109.403,171.286,109.359L171.286,109.359z"/>
	</g>
</g>
<g>
	<path fill="#FFFFFF" d="M241,370.859c-25.715,1.143-14.286-52-2.286-59.429c13.144-8.571,17.715,11.429,20,22.286
		c1.715,9.143,6.857,32-2.856,38.285c-2.286,1.715-8.572,1.715-11.429,1.715"/>
	<g>
		<path d="M241,369.359c-12.709,0.27-14.386-13.749-13.886-23.581c0.523-10.293,3.327-23.173,10.252-31.192
			c12.512-14.486,18.844,14.063,20.362,21.937c1.409,7.308,2.635,14.685,2.312,22.152c-0.157,3.636-0.915,7.56-3.213,10.483
			c-2.788,3.549-8.354,3.052-12.399,3.059c-1.935,0.004-1.935,3.004,0,3c8.268-0.015,14.717-1.097,17.52-9.668
			c2.762-8.443,0.751-18.5-0.791-26.993c-1.945-10.712-6.52-38.484-23.2-28.42c-4.281,2.582-6.814,8.048-8.608,12.477
			c-2.872,7.092-4.553,14.601-5.172,22.221c-0.957,11.787,2.011,27.841,16.823,27.526C242.932,372.318,242.936,369.318,241,369.359
			L241,369.359z"/>
	</g>
</g>
<g>
	<path fill="#FFFFFF" d="M191.286,333.146c13.143-3.429,14.286,0.571,16,13.143c0.572,7.429,3.429,21.714-5.714,25.143
		c-18.857,6.857-22.857-41.143-3.429-40"/>
	<g>
		<path d="M191.685,334.592c4.422-1.1,10.138-2.68,12.261,2.592c1.744,4.329,1.86,9.439,2.322,14.025
			c0.516,5.122,1.056,10.855-1.403,15.574c-2.167,4.157-7.634,4.736-11.205,2.345c-9.599-6.431-10.748-36.61,4.483-36.197
			c1.936,0.053,1.931-2.947,0-3c-18.99-0.515-18.691,36.86-4.038,42.866c4.159,1.705,8.784,0.495,11.947-2.595
			c4.689-4.58,3.765-13.16,3.216-18.993c-0.535-5.684-0.496-12.951-3.963-17.76c-3.26-4.52-9.929-2.866-14.418-1.75
			C189.01,332.166,189.807,335.059,191.685,334.592L191.685,334.592z"/>
	</g>
</g>
<g>
	<path fill="#FFFFFF" d="M147.857,302.859c-2.286,4.571-4.571,14.286,3.429,13.714C161,315.431,152.428,304.573,147.857,302.859"/>
	<g>
		<path d="M146.562,302.103c-1.663,3.434-2.78,7.325-2.15,11.151c0.729,4.432,5.424,5.487,9.159,4.353
			c9.117-2.768-0.604-14.236-5.315-16.193c-1.787-0.742-2.558,2.162-0.798,2.893c2.768,1.15,10.302,8.894,4.751,10.579
			c-7.334,2.227-4.679-7.919-3.057-11.269C149.991,301.884,147.405,300.361,146.562,302.103L146.562,302.103z"/>
	</g>
</g>
<g>
	<path fill="#FFFFFF" d="M225,256.573c-5.715-1.143-25.714-1.714-16.571,9.715c5.714,6.857,22.856,0,15.429-9.715"/>
	<g>
		<path d="M225.398,255.127c-6.416-1.213-25.917-1.404-19.545,10.091c6.254,11.281,27.711,2.383,19.299-9.401
			c-1.113-1.561-3.717-0.064-2.59,1.514c6.353,8.901-10.97,14.697-14.735,5.123c-2.467-6.274,13.754-5.004,16.774-4.434
			C226.491,258.377,227.298,255.486,225.398,255.127L225.398,255.127z"/>
	</g>
</g>
<ellipse fill="#FFFFFF" stroke="#FFFFFF" stroke-miterlimit="10" cx="261.735" cy="206.715" rx="7.123" ry="9.716"/>
<line fill="none" stroke="#000000" stroke-width="2" stroke-miterlimit="10" x1="171.286" y1="110.859" x2="275.857" y2="350.288"/>
</svg>
